Patient4_TMGait_0pt7_02_right_20_EMG.mot
version=1
nRows=27
nColumns=33
inDegrees=no
endheader
time	1LAddLong	2LGlutMax	3LGlutMed	4LIliopsoas	5LSemiMemb	6LBicFemLong	7LRecFem	8LVastMed	9LVastLat	10LGasMed	11LTibAnt	12lTibPost	13LPeroneusLong	14LSol	15LExtDigLong	16LFlexDigLong	17RAddLong	18RGlutMax	19RGlutMed	20RIliopsoas	21RSemiMemb	22RBicFemLong	23RRecFem	24RVastMed	25RVastLat	26RGasMed	27RTibAnt	28RTibPost	29RPeroneusLong	30RSol	31RExtDigLong	32RFlexDigLong
22.497	-0.009613	-0.64255	0.24933	-0.050964	0.018311	-0.050507	0.008545	0.003815	-0.030365	-0.032501	0.19119	0.005493	-0.090332	0.070801	0.19241	-0.050964	0.086975	-0.1384	-0.77057	0.08316	-0.8519	-0.20325	0.068207	0.023499	-0.000763	0.007172	0.007629	-0.10757	0.19836	0.25116	-0.001831	-0.033875
22.498	-0.02121	-0.67062	0.22827	-0.055084	0.02182	-0.046234	-0.003815	0.002594	-0.045624	-0.007782	0.06958	0.007477	-0.12695	0.028381	-0.11963	-0.056305	0.013885	-0.080109	-0.39597	0.016174	-0.36194	-0.3598	0.022736	0.12894	0.055695	0.014191	0.002441	-0.06012	0.15076	0.34744	-0.005341	-0.029144
22.499	-0.017548	-0.70572	0.25284	-0.003052	0.018158	-0.03479	0.032806	-0.003357	-0.037537	0.001526	-0.39047	0.003967	-0.12451	0.062103	-0.009918	-0.049133	0.039978	0.11124	-0.30914	-0.022278	0.6218	-0.55328	0.045929	0.010834	0.11658	0.025177	0.009308	-0.007629	0.18753	0.45151	-0.00351	-0.0354
22.5	-0.028381	-0.67032	0.27863	-0.002899	0.018463	-0.040588	0.14343	-0.000763	-0.053253	0.009308	-0.35309	0.003662	-0.11215	0.092621	-0.088501	-0.055847	0.025482	0.21668	-0.44495	-0.13336	0.36758	-0.27069	0.13016	0.15167	0.14389	0.024414	0.076599	-0.045471	0.004883	0.24277	-0.000153	-0.042877
22.501	-0.023956	-0.63629	0.25116	0.001831	0.010071	-0.048981	0.22201	0.003967	-0.056458	-0.033569	-0.26566	0.006256	-0.056	0.077362	0.45731	-0.040588	-0.010681	0.21179	-0.30151	-0.092163	0.18646	0.062866	0.25757	0.12497	0.097046	0.030212	0.072937	-0.013428	0.21835	0.035095	-0.000916	-0.042114
22.502	-0.016785	-0.57587	0.20721	0.00946	0.008698	-0.05127	0.2211	0.006866	-0.037079	-0.079803	-0.30243	0.005341	0.038605	0.15289	0.49591	-0.029144	-0.038147	0.017853	-1.1394	0.074768	0.27802	0.056305	0.34485	0.061798	0.063477	0.035095	0.074921	-0.029144	0.26581	-0.10742	-0.002594	-0.0354
22.503	-0.019226	-0.41321	0.24063	0.041656	0.003357	-0.037079	0.22232	0.001373	-0.037231	-0.040588	0.00885	0.004578	0.022583	0.15213	0.018768	-0.023651	-0.07843	-0.19211	-1.9788	0.079956	0.15366	-0.020599	0.45197	0.10574	0.045471	0.06134	0.073242	-0.039825	-0.14358	-0.17105	-0.001068	-0.037384
22.504	-0.000763	-0.23605	0.21805	0.011902	0.002594	-0.036316	0.22568	-0.00824	-0.014954	0.011444	0.42206	-0.001831	-0.13077	0.081635	-0.12054	-0.047455	-0.067444	-0.36957	-1.6853	0.032349	0.052032	-0.13229	0.39551	0.29129	0.03006	-0.10239	0.066528	-0.037994	-0.35858	-0.075989	0.000153	-0.040131
22.505	0.005188	-0.081177	0.22247	-0.016632	0.005188	-0.03891	0.21851	-0.013123	-0.014343	0.013123	0.50949	0.002136	-0.22263	0.088348	-0.4631	-0.043488	-0.03418	-0.5481	-0.91126	-0.041046	0.21927	-0.24292	0.46432	0.35095	-0.24368	-0.16617	0.073547	-0.075226	-0.64133	-0.59006	0.005951	-0.038757
22.506	0.015869	0.021362	0.21484	-0.014496	0.001984	-0.024872	0.19165	0.005188	-0.018005	-0.010681	0.30258	0.006866	-0.088806	0.06073	0.058289	-0.033722	0.036011	-0.64041	-1.366	0.001373	0.010529	-0.23529	0.55359	0.19547	-0.50888	-0.11536	0.10391	-0.043182	-0.52292	-0.87128	-0.003357	-0.031738
22.507	0.021057	0.012817	0.16419	0.021057	0.007629	-0.026093	0.14908	0.001221	-0.00351	-0.031891	0.22369	-0.003662	-0.032196	0.08316	-0.075684	-0.038452	0.005798	-0.67429	-1.3057	0.016479	-0.039978	-0.074463	0.61966	0.066681	-0.36987	-0.082092	0.071716	0.013275	-0.22888	-1.0013	-0.001678	-0.02594
22.508	0.019379	0.006714	0.14053	0.034943	0.007019	-0.027161	0.20706	0.005035	0.022736	-0.03067	0.18112	0.00412	-0.088196	-0.031433	-0.28229	-0.037689	-0.040894	-0.70023	-1.3246	-0.025024	-0.14816	0.15747	0.70221	-0.06546	-0.2626	-0.003357	0.006561	-0.050354	0.37674	-0.97229	0.000763	-0.017242
22.509	0.017242	-0.01297	0.13062	0.004883	0.009155	-0.040894	0.19058	0.016327	0.036469	-0.027466	-0.1889	-0.001678	-0.010986	-0.12787	-0.68558	-0.020905	-0.065765	-0.90317	-1.4685	-0.070648	-0.21057	0.049438	0.61905	-0.071564	-0.16342	0.12512	0.027924	-0.11978	0.44189	-0.74738	-0.000458	-0.023804
22.51	0.009613	0.018768	0.15243	-0.018616	0.002136	-0.044861	0.15747	-0.001831	0.052338	0.022736	-0.26215	0.001526	-0.025177	-0.095367	-0.21698	-0.027771	-0.011902	-1.0925	-1.1797	-0.13718	0.04715	-0.046387	0.59433	-0.10666	-0.10666	0.057068	0.065918	-0.36148	0.19058	-0.51971	-0.002899	-0.020447
22.511	-0.001831	0.079498	0.17578	-0.015869	0.008087	-0.041199	0.1622	-0.003967	0.057526	0.054474	-0.23178	-0.001068	-0.079346	-0.0354	-0.080872	-0.035248	-0.050354	-1.1063	-1.0918	-0.063171	0.12482	0.16815	0.53329	0.054321	0.025482	-0.040131	0.068054	-0.013275	-0.042419	-0.22949	-0.003662	-0.034637
22.512	-0.003204	0.088654	0.15045	-0.01358	0.012054	-0.052338	0.15854	-0.000305	0.046844	0.060577	-0.15839	-0.002289	-0.082245	0.030518	-0.01236	-0.018158	-0.093231	-1.1081	-0.97382	-0.050354	0.17975	0.35156	0.52063	0.045166	0.072479	-0.028381	0.067444	0.14847	-0.17838	0.13062	-0.003967	-0.025635
22.513	-0.046082	0.11459	0.14328	0.00351	0.007324	-0.058136	0.13397	-0.005646	0.048065	0.051422	-0.11612	-0.000458	-0.12558	0.014801	0.30121	-0.024719	-0.066833	-1.1118	-0.84717	-0.072937	0.30258	0.24109	0.55206	0.041046	0.019989	-0.017242	0.054321	-0.25146	-0.29205	0.18356	-0.001984	-0.022583
22.514	-0.028839	0.14526	0.16174	0.015411	0.002899	-0.027313	0.08194	0.007477	0.038452	0.06958	-0.056152	-0.010071	-0.1471	0.026398	0.53482	-0.010681	-0.070496	-0.98938	-0.73044	-0.02533	0.27847	0.1918	0.40024	0.15228	0.012665	0.075684	0.055847	-0.030212	-0.12558	0.4599	-0.003662	-0.026398
22.515	0.045166	0.12878	0.16632	0.033722	0.005341	-0.033264	0.085754	0.003967	0.043335	0.059509	-0.02121	0.000305	-0.11185	0.023193	-0.36468	-0.009613	-0.054626	-1.1311	-0.99686	0.030823	0.25009	0.57068	0.37445	0.12375	-0.12177	0.16907	0.041351	0.2327	0.1915	0.87097	-0.004578	-0.0177
22.516	0.00412	0.14664	0.13321	0.027466	0.009155	-0.029907	0.10284	-0.009613	0.039368	0.032501	-0.047455	0.005341	-0.028992	0.033875	-0.12604	0.007477	-0.00824	-1.2395	-0.88913	-0.092163	0.14481	0.61172	0.33905	0.14816	-0.12695	0.08728	0.058441	0.40039	0.32547	0.89142	-0.00351	-0.015411
22.517	-0.00351	0.11383	0.079346	-0.020752	0.011749	-0.02655	0.062866	-0.006104	0.030212	0.042419	0.046082	0.001221	0.005798	0.051422	-0.080261	-0.00946	0.019836	-1.0976	-0.51209	-0.11429	-0.17105	0.4425	0.28122	0.18143	-0.17532	0.054932	0.066223	0.17181	0.18021	0.64941	-0.000458	-0.0177
22.518	0.007935	0.041504	0.091248	-0.006561	0.00885	-0.037689	0.065613	0.004425	0.031738	0.066681	0.075073	0.00061	-0.079193	0.06073	-0.022736	-0.003662	0.050659	-1.1467	-0.3685	-0.036163	-0.075073	0.41901	0.24277	0.10971	-0.16693	0.00885	0.097961	0.071869	0.014648	0.14648	-0.002899	-0.025787
22.519	-0.003052	-0.059052	0.054169	-0.041046	0.010529	-0.011597	0.11932	0.00473	0.028076	0.07431	-0.12787	0.005951	-0.097046	0.063477	0.12665	-0.008698	0.021515	-1.2653	-0.31967	0.14114	-0.030823	0.1207	0.058289	0.12192	0.054626	0.010834	0.093536	0.010529	-0.018921	-0.55069	-0.000305	-0.020599
22.52	-0.003052	-0.093384	0.037689	-0.02594	0.003815	-0.022583	0.23941	0.009003	0.019379	0.085602	-0.3569	0.008545	-0.12222	0.11398	0.43991	-0.014343	-0.009155	-1.3762	-0.32074	0.24689	-0.15228	-0.27222	0.14145	-0.02533	0.015564	0.010986	0.10269	0.082397	-0.060577	-0.55679	-0.003357	-0.013123
22.521	-0.003967	-0.04425	0.027924	0.037231	-0.003052	-0.028839	0.1918	0.008392	0.028839	0.052185	-0.041809	0.010986	-0.13321	0.15396	0.24109	-0.010223	-0.035095	-1.4012	0.12054	0.046082	-0.10681	-0.3418	0.31784	-0.016022	-0.032043	-0.000153	0.13672	0.001526	-0.25345	0.78644	-0.006714	-0.00824
22.522	-0.00473	0.056458	0.015106	0.08606	-0.001526	-0.01709	0.25192	0.013275	0.021973	0.030975	0.13931	0.004578	-0.074463	0.13397	0.036163	-0.019073	-0.0737	-1.4105	0.09491	-0.016479	0.1326	-0.3389	0.28809	0.18433	-0.009613	-0.005341	0.12466	-0.014038	-0.24216	0.66361	-0.003662	-0.011292
22.523	-0.011749	0.13565	-0.010986	0.060883	0.006256	-0.021515	0.25833	-0.001068	0.034637	0.028992	0.15442	0.010071	-0.088654	0.13336	-0.13184	-0.005798	-0.060577	-1.6341	-0.26993	-0.017853	0.14374	-0.063477	0.20813	0.14297	-0.013123	-0.007324	0.091095	-0.041199	0.32883	0.27756	-0.009613	-0.001373
